<svg xmlns="http://www.w3.org/2000/svg" xmlns:xlink="http://www.w3.org/1999/xlink" version="1.1" width="256" height="256" viewBox="0 0 256 256" xml:space="preserve">

<defs>
</defs>
<g style="stroke: none; stroke-width: 0; stroke-dasharray: none; stroke-linecap: butt; stroke-linejoin: miter; stroke-miterlimit: 10; fill: none; fill-rule: nonzero; opacity: 1;" transform="translate(1.4065934065934016 1.4065934065934016) scale(2.81 2.81)" >
	<polygon points="67.74,1 84.81,18.07 67.74,18.07 " style="stroke: none; stroke-width: 1; stroke-dasharray: none; stroke-linecap: butt; stroke-linejoin: miter; stroke-miterlimit: 10; fill: rgb(188,203,206); fill-rule: nonzero; opacity: 1;" transform="  matrix(1 0 0 1 0 0) "/>
	<path d="M 24.51 80.878 c 9.661 -4.437 19.322 -11.483 19.322 -30.402 V 36.617 c -6.441 -0.316 -12.881 -3.481 -19.322 -9.495 c -6.441 6.014 -12.881 9.179 -19.322 9.495 v 13.858 C 5.188 69.395 14.849 76.441 24.51 80.878 L 24.51 80.878 z" style="stroke: none; stroke-width: 1; stroke-dasharray: none; stroke-linecap: butt; stroke-linejoin: miter; stroke-miterlimit: 10; fill: rgb(46,140,204); fill-rule: nonzero; opacity: 1;" transform=" matrix(1 0 0 1 0 0) " stroke-linecap="round" />
	<path d="M 24.51 65.505 L 24.51 65.505 c -3.859 0 -6.988 -3.129 -6.988 -6.988 v -5.153 h 13.976 v 5.153 C 31.498 62.377 28.369 65.505 24.51 65.505 z" style="stroke: none; stroke-width: 1; stroke-dasharray: none; stroke-linecap: butt; stroke-linejoin: miter; stroke-miterlimit: 10; fill: rgb(254,183,86); fill-rule: nonzero; opacity: 1;" transform=" matrix(1 0 0 1 0 0) " stroke-linecap="round" />
	<path d="M 67.741 18.071 V 1 H 24.51 v 26.122 c 6.441 6.014 12.881 9.179 19.322 9.495 v 13.858 c 0 18.92 -9.661 25.966 -19.322 30.402 V 89 h 60.302 V 18.071 H 67.741 z" style="stroke: none; stroke-width: 1; stroke-dasharray: none; stroke-linecap: butt; stroke-linejoin: miter; stroke-miterlimit: 10; fill: rgb(221,234,237); fill-rule: nonzero; opacity: 1;" transform=" matrix(1 0 0 1 0 0) " stroke-linecap="round" />
	<path d="M 84.813 19.071 H 67.741 c -0.553 0 -1 -0.448 -1 -1 V 1 c 0 -0.404 0.243 -0.769 0.617 -0.924 c 0.374 -0.154 0.804 -0.069 1.09 0.217 L 85.52 17.364 c 0.286 0.286 0.372 0.716 0.217 1.09 C 85.582 18.828 85.217 19.071 84.813 19.071 z M 68.741 17.071 h 13.657 L 68.741 3.414 V 17.071 z" style="stroke: none; stroke-width: 1; stroke-dasharray: none; stroke-linecap: butt; stroke-linejoin: miter; stroke-miterlimit: 10; fill: rgb(0,0,0); fill-rule: nonzero; opacity: 1;" transform=" matrix(1 0 0 1 0 0) " stroke-linecap="round" />
	<path d="M 24.51 66.505 c -4.404 0 -7.988 -3.583 -7.988 -7.987 v -5.152 c 0 -0.553 0.448 -1 1 -1 h 13.976 c 0.552 0 1 0.447 1 1 v 5.152 C 32.498 62.922 28.914 66.505 24.51 66.505 z M 18.522 54.365 v 4.152 c 0 3.302 2.686 5.987 5.988 5.987 s 5.988 -2.686 5.988 -5.987 v -4.152 H 18.522 z" style="stroke: none; stroke-width: 1; stroke-dasharray: none; stroke-linecap: butt; stroke-linejoin: miter; stroke-miterlimit: 10; fill: rgb(0,0,0); fill-rule: nonzero; opacity: 1;" transform=" matrix(1 0 0 1 0 0) " stroke-linecap="round" />
	<path d="M 24.51 60.109 c -0.13 0 -0.26 -0.029 -0.38 -0.079 c -0.12 -0.051 -0.23 -0.12 -0.33 -0.221 c -0.19 -0.18 -0.29 -0.43 -0.29 -0.7 c 0 -0.13 0.03 -0.26 0.08 -0.38 c 0.05 -0.13 0.12 -0.239 0.21 -0.33 c 0.37 -0.369 1.04 -0.369 1.42 0 c 0.09 0.091 0.16 0.2 0.21 0.33 c 0.05 0.12 0.08 0.25 0.08 0.38 c 0 0.271 -0.1 0.521 -0.29 0.7 c -0.1 0.101 -0.21 0.17 -0.33 0.221 C 24.77 60.08 24.64 60.109 24.51 60.109 z" style="stroke: none; stroke-width: 1; stroke-dasharray: none; stroke-linecap: butt; stroke-linejoin: miter; stroke-miterlimit: 10; fill: rgb(0,0,0); fill-rule: nonzero; opacity: 1;" transform=" matrix(1 0 0 1 0 0) " stroke-linecap="round" />
	<path d="M 28.815 54.365 h -8.611 c -0.552 0 -1 -0.447 -1 -1 v -6.564 c 0 -2.926 2.38 -5.306 5.306 -5.306 s 5.306 2.38 5.306 5.306 v 6.564 C 29.815 53.918 29.368 54.365 28.815 54.365 z M 21.204 52.365 h 6.611 v -5.564 c 0 -1.823 -1.483 -3.306 -3.306 -3.306 s -3.306 1.483 -3.306 3.306 V 52.365 z" style="stroke: none; stroke-width: 1; stroke-dasharray: none; stroke-linecap: butt; stroke-linejoin: miter; stroke-miterlimit: 10; fill: rgb(0,0,0); fill-rule: nonzero; opacity: 1;" transform=" matrix(1 0 0 1 0 0) " stroke-linecap="round" />
	<path d="M 24.51 81.878 c -0.143 0 -0.285 -0.03 -0.417 -0.091 C 14.25 77.267 4.188 70.013 4.188 50.476 V 36.617 c 0 -0.533 0.418 -0.973 0.951 -0.999 c 6.167 -0.302 12.455 -3.406 18.688 -9.227 c 0.385 -0.358 0.98 -0.358 1.365 0 c 6.233 5.82 12.521 8.925 18.688 9.227 c 0.533 0.026 0.951 0.466 0.951 0.999 v 13.859 c 0 19.537 -10.062 26.791 -19.904 31.312 C 24.794 81.848 24.652 81.878 24.51 81.878 z M 6.188 37.549 v 12.927 c 0 18.13 9.19 25.03 18.322 29.3 c 9.131 -4.27 18.322 -11.17 18.322 -29.3 V 37.549 c -6.112 -0.558 -12.267 -3.604 -18.322 -9.069 C 18.455 33.945 12.3 36.991 6.188 37.549 z" style="stroke: none; stroke-width: 1; stroke-dasharray: none; stroke-linecap: butt; stroke-linejoin: miter; stroke-miterlimit: 10; fill: rgb(0,0,0); fill-rule: nonzero; opacity: 1;" transform=" matrix(1 0 0 1 0 0) " stroke-linecap="round" />
	<path d="M 31.244 18.218 c -0.552 0 -1 -0.448 -1 -1 v -7.187 c 0 -0.552 0.448 -1 1 -1 s 1 0.448 1 1 v 7.187 C 32.244 17.771 31.796 18.218 31.244 18.218 z" style="stroke: none; stroke-width: 1; stroke-dasharray: none; stroke-linecap: butt; stroke-linejoin: miter; stroke-miterlimit: 10; fill: rgb(0,0,0); fill-rule: nonzero; opacity: 1;" transform=" matrix(1 0 0 1 0 0) " stroke-linecap="round" />
	<path d="M 39.937 18.218 h -0.094 c -2.033 0 -3.687 -1.654 -3.687 -3.688 v -1.813 c 0 -2.033 1.654 -3.687 3.687 -3.687 c 2.127 0 3.781 1.654 3.781 3.687 v 1.813 C 43.624 16.564 41.97 18.218 39.937 18.218 z M 39.937 11.031 c -1.024 0 -1.781 0.757 -1.781 1.687 v 1.813 c 0 0.931 0.757 1.688 1.687 1.688 h 0.094 c 0.93 0 1.687 -0.757 1.687 -1.688 v -1.813 C 41.624 11.788 40.867 11.031 39.937 11.031 z" style="stroke: none; stroke-width: 1; stroke-dasharray: none; stroke-linecap: butt; stroke-linejoin: miter; stroke-miterlimit: 10; fill: rgb(0,0,0); fill-rule: nonzero; opacity: 1;" transform=" matrix(1 0 0 1 0 0) " stroke-linecap="round" />
	<path d="M 48.419 18.218 c -0.553 0 -1 -0.448 -1 -1 v -7.187 c 0 -0.552 0.447 -1 1 -1 s 1 0.448 1 1 v 7.187 C 49.419 17.771 48.972 18.218 48.419 18.218 z" style="stroke: none; stroke-width: 1; stroke-dasharray: none; stroke-linecap: butt; stroke-linejoin: miter; stroke-miterlimit: 10; fill: rgb(0,0,0); fill-rule: nonzero; opacity: 1;" transform=" matrix(1 0 0 1 0 0) " stroke-linecap="round" />
	<path d="M 55.289 18.218 c -0.553 0 -1 -0.448 -1 -1 v -7.187 c 0 -0.552 0.447 -1 1 -1 s 1 0.448 1 1 v 7.187 C 56.289 17.771 55.842 18.218 55.289 18.218 z" style="stroke: none; stroke-width: 1; stroke-dasharray: none; stroke-linecap: butt; stroke-linejoin: miter; stroke-miterlimit: 10; fill: rgb(0,0,0); fill-rule: nonzero; opacity: 1;" transform=" matrix(1 0 0 1 0 0) " stroke-linecap="round" />
	<path d="M 42.236 31.492 c -0.552 0 -1 -0.448 -1 -1 v -7.187 c 0 -0.552 0.448 -1 1 -1 s 1 0.448 1 1 v 7.187 C 43.236 31.044 42.789 31.492 42.236 31.492 z" style="stroke: none; stroke-width: 1; stroke-dasharray: none; stroke-linecap: butt; stroke-linejoin: miter; stroke-miterlimit: 10; fill: rgb(0,0,0); fill-rule: nonzero; opacity: 1;" transform=" matrix(1 0 0 1 0 0) " stroke-linecap="round" />
	<path d="M 50.929 31.492 h -0.093 c -2.033 0 -3.688 -1.654 -3.688 -3.687 v -1.813 c 0 -2.033 1.654 -3.688 3.688 -3.688 c 2.126 0 3.78 1.654 3.78 3.688 v 1.813 C 54.616 29.838 52.962 31.492 50.929 31.492 z M 50.929 24.305 c -1.023 0 -1.78 0.757 -1.78 1.688 v 1.813 c 0 0.93 0.757 1.687 1.688 1.687 h 0.093 c 0.931 0 1.688 -0.757 1.688 -1.687 v -1.813 C 52.616 25.062 51.859 24.305 50.929 24.305 z" style="stroke: none; stroke-width: 1; stroke-dasharray: none; stroke-linecap: butt; stroke-linejoin: miter; stroke-miterlimit: 10; fill: rgb(0,0,0); fill-rule: nonzero; opacity: 1;" transform=" matrix(1 0 0 1 0 0) " stroke-linecap="round" />
	<path d="M 59.411 31.492 c -0.553 0 -1 -0.448 -1 -1 v -7.187 c 0 -0.552 0.447 -1 1 -1 s 1 0.448 1 1 v 7.187 C 60.411 31.044 59.964 31.492 59.411 31.492 z" style="stroke: none; stroke-width: 1; stroke-dasharray: none; stroke-linecap: butt; stroke-linejoin: miter; stroke-miterlimit: 10; fill: rgb(0,0,0); fill-rule: nonzero; opacity: 1;" transform=" matrix(1 0 0 1 0 0) " stroke-linecap="round" />
	<path d="M 66.281 31.492 c -0.553 0 -1 -0.448 -1 -1 v -7.187 c 0 -0.552 0.447 -1 1 -1 s 1 0.448 1 1 v 7.187 C 67.281 31.044 66.834 31.492 66.281 31.492 z" style="stroke: none; stroke-width: 1; stroke-dasharray: none; stroke-linecap: butt; stroke-linejoin: miter; stroke-miterlimit: 10; fill: rgb(0,0,0); fill-rule: nonzero; opacity: 1;" transform=" matrix(1 0 0 1 0 0) " stroke-linecap="round" />
	<path d="M 75.661 31.492 h -0.093 c -2.033 0 -3.688 -1.654 -3.688 -3.687 v -1.813 c 0 -2.033 1.654 -3.688 3.688 -3.688 c 2.126 0 3.78 1.654 3.78 3.688 v 1.813 C 79.349 29.838 77.694 31.492 75.661 31.492 z M 75.661 24.305 c -1.023 0 -1.78 0.757 -1.78 1.688 v 1.813 c 0 0.93 0.757 1.687 1.688 1.687 h 0.093 c 0.931 0 1.688 -0.757 1.688 -1.687 v -1.813 C 77.349 25.062 76.592 24.305 75.661 24.305 z" style="stroke: none; stroke-width: 1; stroke-dasharray: none; stroke-linecap: butt; stroke-linejoin: miter; stroke-miterlimit: 10; fill: rgb(0,0,0); fill-rule: nonzero; opacity: 1;" transform=" matrix(1 0 0 1 0 0) " stroke-linecap="round" />
	<path d="M 78.078 44.766 c -0.553 0 -1 -0.448 -1 -1 v -7.187 c 0 -0.552 0.447 -1 1 -1 s 1 0.448 1 1 v 7.187 C 79.078 44.318 78.631 44.766 78.078 44.766 z" style="stroke: none; stroke-width: 1; stroke-dasharray: none; stroke-linecap: butt; stroke-linejoin: miter; stroke-miterlimit: 10; fill: rgb(0,0,0); fill-rule: nonzero; opacity: 1;" transform=" matrix(1 0 0 1 0 0) " stroke-linecap="round" />
	<path d="M 69.479 44.766 h -0.094 c -2.033 0 -3.688 -1.654 -3.688 -3.687 v -1.813 c 0 -2.033 1.654 -3.688 3.688 -3.688 c 2.127 0 3.781 1.654 3.781 3.688 v 1.813 C 73.166 43.112 71.512 44.766 69.479 44.766 z M 69.479 37.579 c -1.024 0 -1.781 0.757 -1.781 1.688 v 1.813 c 0 0.93 0.757 1.687 1.688 1.687 h 0.094 c 0.931 0 1.688 -0.757 1.688 -1.687 v -1.813 C 71.166 38.336 70.409 37.579 69.479 37.579 z" style="stroke: none; stroke-width: 1; stroke-dasharray: none; stroke-linecap: butt; stroke-linejoin: miter; stroke-miterlimit: 10; fill: rgb(0,0,0); fill-rule: nonzero; opacity: 1;" transform=" matrix(1 0 0 1 0 0) " stroke-linecap="round" />
	<path d="M 60.902 44.766 c -0.553 0 -1 -0.448 -1 -1 v -7.187 c 0 -0.552 0.447 -1 1 -1 s 1 0.448 1 1 v 7.187 C 61.902 44.318 61.455 44.766 60.902 44.766 z" style="stroke: none; stroke-width: 1; stroke-dasharray: none; stroke-linecap: butt; stroke-linejoin: miter; stroke-miterlimit: 10; fill: rgb(0,0,0); fill-rule: nonzero; opacity: 1;" transform=" matrix(1 0 0 1 0 0) " stroke-linecap="round" />
	<path d="M 54.032 44.766 c -0.553 0 -1 -0.448 -1 -1 v -7.187 c 0 -0.552 0.447 -1 1 -1 s 1 0.448 1 1 v 7.187 C 55.032 44.318 54.585 44.766 54.032 44.766 z" style="stroke: none; stroke-width: 1; stroke-dasharray: none; stroke-linecap: butt; stroke-linejoin: miter; stroke-miterlimit: 10; fill: rgb(0,0,0); fill-rule: nonzero; opacity: 1;" transform=" matrix(1 0 0 1 0 0) " stroke-linecap="round" />
	<path d="M 67.086 58.04 c -0.553 0 -1 -0.447 -1 -1 v -7.187 c 0 -0.553 0.447 -1 1 -1 s 1 0.447 1 1 v 7.187 C 68.086 57.593 67.639 58.04 67.086 58.04 z" style="stroke: none; stroke-width: 1; stroke-dasharray: none; stroke-linecap: butt; stroke-linejoin: miter; stroke-miterlimit: 10; fill: rgb(0,0,0); fill-rule: nonzero; opacity: 1;" transform=" matrix(1 0 0 1 0 0) " stroke-linecap="round" />
	<path d="M 58.486 58.04 h -0.094 c -2.033 0 -3.688 -1.654 -3.688 -3.688 V 52.54 c 0 -2.033 1.654 -3.687 3.688 -3.687 c 2.127 0 3.781 1.653 3.781 3.687 v 1.813 C 62.174 56.386 60.52 58.04 58.486 58.04 z M 58.486 50.854 c -1.024 0 -1.781 0.757 -1.781 1.687 v 1.813 c 0 0.931 0.757 1.688 1.688 1.688 h 0.094 c 0.931 0 1.688 -0.757 1.688 -1.688 V 52.54 C 60.174 51.61 59.417 50.854 58.486 50.854 z" style="stroke: none; stroke-width: 1; stroke-dasharray: none; stroke-linecap: butt; stroke-linejoin: miter; stroke-miterlimit: 10; fill: rgb(0,0,0); fill-rule: nonzero; opacity: 1;" transform=" matrix(1 0 0 1 0 0) " stroke-linecap="round" />
	<path d="M 49.91 58.04 c -0.553 0 -1 -0.447 -1 -1 v -7.187 c 0 -0.553 0.447 -1 1 -1 s 1 0.447 1 1 v 7.187 C 50.91 57.593 50.463 58.04 49.91 58.04 z" style="stroke: none; stroke-width: 1; stroke-dasharray: none; stroke-linecap: butt; stroke-linejoin: miter; stroke-miterlimit: 10; fill: rgb(0,0,0); fill-rule: nonzero; opacity: 1;" transform=" matrix(1 0 0 1 0 0) " stroke-linecap="round" />
	<path d="M 75.661 58.04 h -0.093 c -2.033 0 -3.688 -1.654 -3.688 -3.688 V 52.54 c 0 -2.033 1.654 -3.687 3.688 -3.687 c 2.126 0 3.78 1.653 3.78 3.687 v 1.813 C 79.349 56.386 77.694 58.04 75.661 58.04 z M 75.661 50.854 c -1.023 0 -1.78 0.757 -1.78 1.687 v 1.813 c 0 0.931 0.757 1.688 1.688 1.688 h 0.093 c 0.931 0 1.688 -0.757 1.688 -1.688 V 52.54 C 77.349 51.61 76.592 50.854 75.661 50.854 z" style="stroke: none; stroke-width: 1; stroke-dasharray: none; stroke-linecap: butt; stroke-linejoin: miter; stroke-miterlimit: 10; fill: rgb(0,0,0); fill-rule: nonzero; opacity: 1;" transform=" matrix(1 0 0 1 0 0) " stroke-linecap="round" />
	<path d="M 48.419 71.314 c -0.553 0 -1 -0.447 -1 -1 v -7.188 c 0 -0.553 0.447 -1 1 -1 s 1 0.447 1 1 v 7.188 C 49.419 70.867 48.972 71.314 48.419 71.314 z" style="stroke: none; stroke-width: 1; stroke-dasharray: none; stroke-linecap: butt; stroke-linejoin: miter; stroke-miterlimit: 10; fill: rgb(0,0,0); fill-rule: nonzero; opacity: 1;" transform=" matrix(1 0 0 1 0 0) " stroke-linecap="round" />
	<path d="M 55.289 71.314 c -0.553 0 -1 -0.447 -1 -1 v -7.188 c 0 -0.553 0.447 -1 1 -1 s 1 0.447 1 1 v 7.188 C 56.289 70.867 55.842 71.314 55.289 71.314 z" style="stroke: none; stroke-width: 1; stroke-dasharray: none; stroke-linecap: butt; stroke-linejoin: miter; stroke-miterlimit: 10; fill: rgb(0,0,0); fill-rule: nonzero; opacity: 1;" transform=" matrix(1 0 0 1 0 0) " stroke-linecap="round" />
	<path d="M 64.669 71.314 h -0.093 c -2.033 0 -3.688 -1.654 -3.688 -3.688 v -1.813 c 0 -2.033 1.654 -3.688 3.688 -3.688 c 2.126 0 3.78 1.654 3.78 3.688 v 1.813 C 68.356 69.66 66.702 71.314 64.669 71.314 z M 64.669 64.127 c -1.023 0 -1.78 0.757 -1.78 1.688 v 1.813 c 0 0.931 0.757 1.688 1.688 1.688 h 0.093 c 0.931 0 1.688 -0.757 1.688 -1.688 v -1.813 C 66.356 64.884 65.6 64.127 64.669 64.127 z" style="stroke: none; stroke-width: 1; stroke-dasharray: none; stroke-linecap: butt; stroke-linejoin: miter; stroke-miterlimit: 10; fill: rgb(0,0,0); fill-rule: nonzero; opacity: 1;" transform=" matrix(1 0 0 1 0 0) " stroke-linecap="round" />
	<path d="M 75.661 71.314 h -0.093 c -2.033 0 -3.688 -1.654 -3.688 -3.688 v -1.813 c 0 -2.033 1.654 -3.688 3.688 -3.688 c 2.126 0 3.78 1.654 3.78 3.688 v 1.813 C 79.349 69.66 77.694 71.314 75.661 71.314 z M 75.661 64.127 c -1.023 0 -1.78 0.757 -1.78 1.688 v 1.813 c 0 0.931 0.757 1.688 1.688 1.688 h 0.093 c 0.931 0 1.688 -0.757 1.688 -1.688 v -1.813 C 77.349 64.884 76.592 64.127 75.661 64.127 z" style="stroke: none; stroke-width: 1; stroke-dasharray: none; stroke-linecap: butt; stroke-linejoin: miter; stroke-miterlimit: 10; fill: rgb(0,0,0); fill-rule: nonzero; opacity: 1;" transform=" matrix(1 0 0 1 0 0) " stroke-linecap="round" />
	<path d="M 42.236 84.588 c -0.552 0 -1 -0.447 -1 -1 v -7.187 c 0 -0.553 0.448 -1 1 -1 s 1 0.447 1 1 v 7.187 C 43.236 84.141 42.789 84.588 42.236 84.588 z" style="stroke: none; stroke-width: 1; stroke-dasharray: none; stroke-linecap: butt; stroke-linejoin: miter; stroke-miterlimit: 10; fill: rgb(0,0,0); fill-rule: nonzero; opacity: 1;" transform=" matrix(1 0 0 1 0 0) " stroke-linecap="round" />
	<path d="M 50.929 84.588 h -0.093 c -2.033 0 -3.688 -1.653 -3.688 -3.687 v -1.813 c 0 -2.033 1.654 -3.688 3.688 -3.688 c 2.126 0 3.78 1.654 3.78 3.688 v 1.813 C 54.616 82.935 52.962 84.588 50.929 84.588 z M 50.929 77.401 c -1.023 0 -1.78 0.757 -1.78 1.688 v 1.813 c 0 0.93 0.757 1.687 1.688 1.687 h 0.093 c 0.931 0 1.688 -0.757 1.688 -1.687 v -1.813 C 52.616 78.158 51.859 77.401 50.929 77.401 z" style="stroke: none; stroke-width: 1; stroke-dasharray: none; stroke-linecap: butt; stroke-linejoin: miter; stroke-miterlimit: 10; fill: rgb(0,0,0); fill-rule: nonzero; opacity: 1;" transform=" matrix(1 0 0 1 0 0) " stroke-linecap="round" />
	<path d="M 59.411 84.588 c -0.553 0 -1 -0.447 -1 -1 v -7.187 c 0 -0.553 0.447 -1 1 -1 s 1 0.447 1 1 v 7.187 C 60.411 84.141 59.964 84.588 59.411 84.588 z" style="stroke: none; stroke-width: 1; stroke-dasharray: none; stroke-linecap: butt; stroke-linejoin: miter; stroke-miterlimit: 10; fill: rgb(0,0,0); fill-rule: nonzero; opacity: 1;" transform=" matrix(1 0 0 1 0 0) " stroke-linecap="round" />
	<path d="M 66.281 84.588 c -0.553 0 -1 -0.447 -1 -1 v -7.187 c 0 -0.553 0.447 -1 1 -1 s 1 0.447 1 1 v 7.187 C 67.281 84.141 66.834 84.588 66.281 84.588 z" style="stroke: none; stroke-width: 1; stroke-dasharray: none; stroke-linecap: butt; stroke-linejoin: miter; stroke-miterlimit: 10; fill: rgb(0,0,0); fill-rule: nonzero; opacity: 1;" transform=" matrix(1 0 0 1 0 0) " stroke-linecap="round" />
	<path d="M 75.661 84.588 h -0.093 c -2.033 0 -3.688 -1.653 -3.688 -3.687 v -1.813 c 0 -2.033 1.654 -3.688 3.688 -3.688 c 2.126 0 3.78 1.654 3.78 3.688 v 1.813 C 79.349 82.935 77.694 84.588 75.661 84.588 z M 75.661 77.401 c -1.023 0 -1.78 0.757 -1.78 1.688 v 1.813 c 0 0.93 0.757 1.687 1.688 1.687 h 0.093 c 0.931 0 1.688 -0.757 1.688 -1.687 v -1.813 C 77.349 78.158 76.592 77.401 75.661 77.401 z" style="stroke: none; stroke-width: 1; stroke-dasharray: none; stroke-linecap: butt; stroke-linejoin: miter; stroke-miterlimit: 10; fill: rgb(0,0,0); fill-rule: nonzero; opacity: 1;" transform=" matrix(1 0 0 1 0 0) " stroke-linecap="round" />
	<path d="M 84.813 90 H 24.51 c -0.552 0 -1 -0.447 -1 -1 v -8.122 c 0 -0.391 0.228 -0.746 0.583 -0.909 c 9.267 -4.255 18.739 -11.087 18.739 -29.493 V 37.549 c -6.342 -0.579 -12.73 -3.836 -19.004 -9.696 c -0.203 -0.189 -0.317 -0.454 -0.317 -0.731 V 1 c 0 -0.552 0.448 -1 1 -1 h 43.231 c 0.553 0 1 0.448 1 1 v 16.071 h 16.071 c 0.553 0 1 0.448 1 1 V 89 C 85.813 89.553 85.365 90 84.813 90 z M 25.51 88 h 58.303 V 19.071 H 67.741 c -0.553 0 -1 -0.448 -1 -1 V 2 H 25.51 v 24.685 c 6.129 5.631 12.308 8.636 18.371 8.933 c 0.533 0.026 0.951 0.466 0.951 0.999 v 13.859 c 0 19.151 -9.668 26.5 -19.322 31.04 V 88 z" style="stroke: none; stroke-width: 1; stroke-dasharray: none; stroke-linecap: butt; stroke-linejoin: miter; stroke-miterlimit: 10; fill: rgb(0,0,0); fill-rule: nonzero; opacity: 1;" transform=" matrix(1 0 0 1 0 0) " stroke-linecap="round" />
</g>
</svg>