<svg xmlns="http://www.w3.org/2000/svg" xmlns:xlink="http://www.w3.org/1999/xlink" version="1.1" width="256" height="256" viewBox="0 0 256 256" xml:space="preserve">

<defs>
</defs>
<g style="stroke: none; stroke-width: 0; stroke-dasharray: none; stroke-linecap: butt; stroke-linejoin: miter; stroke-miterlimit: 10; fill: none; fill-rule: nonzero; opacity: 1;" transform="translate(1.4065934065934016 1.4065934065934016) scale(2.81 2.81)" >
	<circle cx="5.338" cy="72.008" r="4.338" style="stroke: none; stroke-width: 1; stroke-dasharray: none; stroke-linecap: butt; stroke-linejoin: miter; stroke-miterlimit: 10; fill: rgb(46,140,204); fill-rule: nonzero; opacity: 1;" transform="  matrix(1 0 0 1 0 0) "/>
	<circle cx="84.65799999999999" cy="72.008" r="4.338" style="stroke: none; stroke-width: 1; stroke-dasharray: none; stroke-linecap: butt; stroke-linejoin: miter; stroke-miterlimit: 10; fill: rgb(46,140,204); fill-rule: nonzero; opacity: 1;" transform="  matrix(1 0 0 1 0 0) "/>
	<circle cx="5.338" cy="20.978" r="4.338" style="stroke: none; stroke-width: 1; stroke-dasharray: none; stroke-linecap: butt; stroke-linejoin: miter; stroke-miterlimit: 10; fill: rgb(46,140,204); fill-rule: nonzero; opacity: 1;" transform="  matrix(1 0 0 1 0 0) "/>
	<circle cx="84.65799999999999" cy="20.978" r="4.338" style="stroke: none; stroke-width: 1; stroke-dasharray: none; stroke-linecap: butt; stroke-linejoin: miter; stroke-miterlimit: 10; fill: rgb(46,140,204); fill-rule: nonzero; opacity: 1;" transform="  matrix(1 0 0 1 0 0) "/>
	<circle cx="84.65799999999999" cy="46.488" r="4.338" style="stroke: none; stroke-width: 1; stroke-dasharray: none; stroke-linecap: butt; stroke-linejoin: miter; stroke-miterlimit: 10; fill: rgb(46,140,204); fill-rule: nonzero; opacity: 1;" transform="  matrix(1 0 0 1 0 0) "/>
	<circle cx="5.338" cy="46.488" r="4.338" style="stroke: none; stroke-width: 1; stroke-dasharray: none; stroke-linecap: butt; stroke-linejoin: miter; stroke-miterlimit: 10; fill: rgb(46,140,204); fill-rule: nonzero; opacity: 1;" transform="  matrix(1 0 0 1 0 0) "/>
	<path d="M 56.355 21.725 l -2.513 3.788 l 5.045 6.312 L 44.802 43.154 l 6.243 -13.182 l -3.472 -4.459 l 3.915 -6.635 c -2.163 -1.469 -4.326 -3.203 -6.488 -5.223 c -7.511 7.013 -15.022 10.704 -22.533 11.072 V 40.89 c 0 22.064 11.266 30.281 22.533 35.455 C 56.266 71.17 67.533 62.953 67.533 40.89 V 24.728 C 63.807 24.545 60.081 23.543 56.355 21.725 z" style="stroke: none; stroke-width: 1; stroke-dasharray: none; stroke-linecap: butt; stroke-linejoin: miter; stroke-miterlimit: 10; fill: rgb(46,140,204); fill-rule: nonzero; opacity: 1;" transform=" matrix(1 0 0 1 0 0) " stroke-linecap="round" />
	<circle cx="44.998" cy="58.708" r="9.338" style="stroke: none; stroke-width: 1; stroke-dasharray: none; stroke-linecap: butt; stroke-linejoin: miter; stroke-miterlimit: 10; fill: rgb(254,183,86); fill-rule: nonzero; opacity: 1;" transform="  matrix(1 0 0 1 0 0) "/>
	<path d="M 8.274 69.82 c -0.242 0 -0.485 -0.088 -0.677 -0.265 c -0.406 -0.374 -0.432 -1.007 -0.058 -1.413 l 6.357 -6.896 c 0.189 -0.205 0.456 -0.322 0.735 -0.322 h 12.822 c 0.552 0 1 0.447 1 1 s -0.448 1 -1 1 H 15.069 l -6.06 6.573 C 8.813 69.712 8.544 69.82 8.274 69.82 z" style="stroke: none; stroke-width: 1; stroke-dasharray: none; stroke-linecap: butt; stroke-linejoin: miter; stroke-miterlimit: 10; fill: rgb(0,0,0); fill-rule: nonzero; opacity: 1;" transform=" matrix(1 0 0 1 0 0) " stroke-linecap="round" />
	<path d="M 81.726 69.82 c -0.27 0 -0.538 -0.108 -0.735 -0.322 l -6.06 -6.573 H 62.546 c -0.553 0 -1 -0.447 -1 -1 s 0.447 -1 1 -1 h 12.823 c 0.279 0 0.546 0.117 0.735 0.322 l 6.356 6.896 c 0.374 0.406 0.349 1.039 -0.058 1.413 C 82.211 69.732 81.968 69.82 81.726 69.82 z" style="stroke: none; stroke-width: 1; stroke-dasharray: none; stroke-linecap: butt; stroke-linejoin: miter; stroke-miterlimit: 10; fill: rgb(0,0,0); fill-rule: nonzero; opacity: 1;" transform=" matrix(1 0 0 1 0 0) " stroke-linecap="round" />
	<path d="M 22.467 32.058 h -7.836 c -0.279 0 -0.546 -0.117 -0.735 -0.322 L 7.539 24.84 c -0.374 -0.406 -0.349 -1.039 0.058 -1.413 c 0.405 -0.375 1.039 -0.349 1.413 0.058 l 6.06 6.573 h 7.398 c 0.552 0 1 0.448 1 1 S 23.02 32.058 22.467 32.058 z" style="stroke: none; stroke-width: 1; stroke-dasharray: none; stroke-linecap: butt; stroke-linejoin: miter; stroke-miterlimit: 10; fill: rgb(0,0,0); fill-rule: nonzero; opacity: 1;" transform=" matrix(1 0 0 1 0 0) " stroke-linecap="round" />
	<path d="M 5.338 77.345 C 2.395 77.345 0 74.95 0 72.007 s 2.395 -5.338 5.338 -5.338 c 2.943 0 5.337 2.395 5.337 5.338 S 8.281 77.345 5.338 77.345 z M 5.338 68.669 C 3.498 68.669 2 70.166 2 72.007 s 1.498 3.338 3.338 3.338 s 3.337 -1.497 3.337 -3.338 S 7.178 68.669 5.338 68.669 z" style="stroke: none; stroke-width: 1; stroke-dasharray: none; stroke-linecap: butt; stroke-linejoin: miter; stroke-miterlimit: 10; fill: rgb(0,0,0); fill-rule: nonzero; opacity: 1;" transform=" matrix(1 0 0 1 0 0) " stroke-linecap="round" />
	<path d="M 84.662 77.345 c -2.943 0 -5.338 -2.395 -5.338 -5.338 s 2.395 -5.338 5.338 -5.338 S 90 69.063 90 72.007 S 87.605 77.345 84.662 77.345 z M 84.662 68.669 c -1.841 0 -3.338 1.497 -3.338 3.338 s 1.497 3.338 3.338 3.338 S 88 73.848 88 72.007 S 86.503 68.669 84.662 68.669 z" style="stroke: none; stroke-width: 1; stroke-dasharray: none; stroke-linecap: butt; stroke-linejoin: miter; stroke-miterlimit: 10; fill: rgb(0,0,0); fill-rule: nonzero; opacity: 1;" transform=" matrix(1 0 0 1 0 0) " stroke-linecap="round" />
	<path d="M 5.338 26.314 C 2.395 26.314 0 23.919 0 20.976 c 0 -2.943 2.395 -5.337 5.338 -5.337 c 2.943 0 5.337 2.395 5.337 5.337 C 10.675 23.919 8.281 26.314 5.338 26.314 z M 5.338 17.639 C 3.498 17.639 2 19.136 2 20.976 s 1.498 3.338 3.338 3.338 s 3.337 -1.498 3.337 -3.338 S 7.178 17.639 5.338 17.639 z" style="stroke: none; stroke-width: 1; stroke-dasharray: none; stroke-linecap: butt; stroke-linejoin: miter; stroke-miterlimit: 10; fill: rgb(0,0,0); fill-rule: nonzero; opacity: 1;" transform=" matrix(1 0 0 1 0 0) " stroke-linecap="round" />
	<path d="M 84.662 26.314 c -2.943 0 -5.338 -2.395 -5.338 -5.338 c 0 -2.943 2.395 -5.337 5.338 -5.337 S 90 18.033 90 20.976 C 90 23.919 87.605 26.314 84.662 26.314 z M 84.662 17.639 c -1.841 0 -3.338 1.497 -3.338 3.337 s 1.497 3.338 3.338 3.338 S 88 22.816 88 20.976 S 86.503 17.639 84.662 17.639 z" style="stroke: none; stroke-width: 1; stroke-dasharray: none; stroke-linecap: butt; stroke-linejoin: miter; stroke-miterlimit: 10; fill: rgb(0,0,0); fill-rule: nonzero; opacity: 1;" transform=" matrix(1 0 0 1 0 0) " stroke-linecap="round" />
	<path d="M 75.369 32.058 h -7.836 c -0.553 0 -1 -0.448 -1 -1 s 0.447 -1 1 -1 h 7.397 l 6.06 -6.573 c 0.375 -0.406 1.007 -0.432 1.413 -0.058 c 0.406 0.375 0.432 1.007 0.058 1.413 l -6.356 6.896 C 75.915 31.941 75.648 32.058 75.369 32.058 z" style="stroke: none; stroke-width: 1; stroke-dasharray: none; stroke-linecap: butt; stroke-linejoin: miter; stroke-miterlimit: 10; fill: rgb(0,0,0); fill-rule: nonzero; opacity: 1;" transform=" matrix(1 0 0 1 0 0) " stroke-linecap="round" />
	<path d="M 80.324 47.491 H 67.268 c -0.553 0 -1 -0.447 -1 -1 c 0 -0.552 0.447 -1 1 -1 h 13.057 c 0.553 0 1 0.448 1 1 C 81.324 47.044 80.877 47.491 80.324 47.491 z" style="stroke: none; stroke-width: 1; stroke-dasharray: none; stroke-linecap: butt; stroke-linejoin: miter; stroke-miterlimit: 10; fill: rgb(0,0,0); fill-rule: nonzero; opacity: 1;" transform=" matrix(1 0 0 1 0 0) " stroke-linecap="round" />
	<path d="M 22.731 47.491 H 10.418 c -0.552 0 -1 -0.447 -1 -1 c 0 -0.552 0.448 -1 1 -1 h 12.313 c 0.552 0 1 0.448 1 1 C 23.731 47.044 23.283 47.491 22.731 47.491 z" style="stroke: none; stroke-width: 1; stroke-dasharray: none; stroke-linecap: butt; stroke-linejoin: miter; stroke-miterlimit: 10; fill: rgb(0,0,0); fill-rule: nonzero; opacity: 1;" transform=" matrix(1 0 0 1 0 0) " stroke-linecap="round" />
	<path d="M 84.662 51.829 c -2.943 0 -5.338 -2.395 -5.338 -5.338 c 0 -2.943 2.395 -5.337 5.338 -5.337 S 90 43.548 90 46.491 C 90 49.435 87.605 51.829 84.662 51.829 z M 84.662 43.154 c -1.841 0 -3.338 1.497 -3.338 3.337 c 0 1.841 1.497 3.338 3.338 3.338 S 88 48.332 88 46.491 C 88 44.651 86.503 43.154 84.662 43.154 z" style="stroke: none; stroke-width: 1; stroke-dasharray: none; stroke-linecap: butt; stroke-linejoin: miter; stroke-miterlimit: 10; fill: rgb(0,0,0); fill-rule: nonzero; opacity: 1;" transform=" matrix(1 0 0 1 0 0) " stroke-linecap="round" />
	<path d="M 5.338 51.829 C 2.395 51.829 0 49.435 0 46.491 c 0 -2.943 2.395 -5.337 5.338 -5.337 c 2.943 0 5.337 2.395 5.337 5.337 C 10.675 49.435 8.281 51.829 5.338 51.829 z M 5.338 43.154 C 3.498 43.154 2 44.651 2 46.491 c 0 1.841 1.498 3.338 3.338 3.338 s 3.337 -1.497 3.337 -3.338 C 8.675 44.651 7.178 43.154 5.338 43.154 z" style="stroke: none; stroke-width: 1; stroke-dasharray: none; stroke-linecap: butt; stroke-linejoin: miter; stroke-miterlimit: 10; fill: rgb(0,0,0); fill-rule: nonzero; opacity: 1;" transform=" matrix(1 0 0 1 0 0) " stroke-linecap="round" />
	<path d="M 45 77.344 c -0.143 0 -0.285 -0.03 -0.417 -0.091 c -11.43 -5.249 -23.115 -13.675 -23.115 -36.363 V 24.728 c 0 -0.533 0.418 -0.973 0.951 -0.999 c 7.233 -0.354 14.601 -3.989 21.899 -10.804 c 0.385 -0.358 0.98 -0.358 1.365 0 c 2.094 1.955 4.235 3.679 6.367 5.126 c 0.437 0.297 0.568 0.881 0.3 1.336 l -3.569 6.048 l 3.054 3.922 c 0.232 0.298 0.276 0.701 0.114 1.042 l -4.377 9.243 l 9.911 -7.973 l -4.422 -5.533 c -0.271 -0.339 -0.292 -0.815 -0.052 -1.177 l 2.513 -3.788 c 0.276 -0.417 0.82 -0.566 1.271 -0.346 c 3.59 1.752 7.22 2.729 10.789 2.903 c 0.533 0.026 0.951 0.466 0.951 0.999 V 40.89 c 0 22.688 -11.686 31.113 -23.116 36.363 C 45.285 77.313 45.143 77.344 45 77.344 z M 23.467 25.663 V 40.89 c 0 21.282 10.813 29.354 21.533 34.353 c 10.72 -4.999 21.533 -13.07 21.533 -34.353 V 25.663 c -3.267 -0.279 -6.563 -1.173 -9.823 -2.664 l -1.632 2.459 l 4.589 5.742 c 0.344 0.431 0.275 1.058 -0.154 1.404 l -14.083 11.33 c -0.363 0.292 -0.88 0.295 -1.246 0.006 c -0.366 -0.289 -0.484 -0.792 -0.285 -1.213 L 49.878 30.1 l -3.094 -3.973 c -0.252 -0.324 -0.281 -0.769 -0.072 -1.123 l 3.442 -5.834 c -1.728 -1.224 -3.456 -2.617 -5.154 -4.156 C 37.881 21.471 30.645 25.049 23.467 25.663 z" style="stroke: none; stroke-width: 1; stroke-dasharray: none; stroke-linecap: butt; stroke-linejoin: miter; stroke-miterlimit: 10; fill: rgb(0,0,0); fill-rule: nonzero; opacity: 1;" transform=" matrix(1 0 0 1 0 0) " stroke-linecap="round" />
	<path d="M 45 61.286 c -0.552 0 -1 -0.447 -1 -1 v -6.854 c 0 -0.553 0.448 -1 1 -1 s 1 0.447 1 1 v 6.854 C 46 60.839 45.552 61.286 45 61.286 z" style="stroke: none; stroke-width: 1; stroke-dasharray: none; stroke-linecap: butt; stroke-linejoin: miter; stroke-miterlimit: 10; fill: rgb(0,0,0); fill-rule: nonzero; opacity: 1;" transform=" matrix(1 0 0 1 0 0) " stroke-linecap="round" />
	<path d="M 45 64.99 c -0.27 0 -0.52 -0.101 -0.71 -0.29 c -0.09 -0.091 -0.16 -0.2 -0.21 -0.32 C 44.03 64.25 44 64.13 44 63.99 c 0 -0.261 0.11 -0.521 0.29 -0.7 c 0.37 -0.38 1.04 -0.38 1.42 0 c 0.18 0.18 0.29 0.439 0.29 0.7 c 0 0.14 -0.02 0.26 -0.08 0.39 c -0.05 0.12 -0.12 0.229 -0.21 0.32 C 45.52 64.89 45.27 64.99 45 64.99 z" style="stroke: none; stroke-width: 1; stroke-dasharray: none; stroke-linecap: butt; stroke-linejoin: miter; stroke-miterlimit: 10; fill: rgb(0,0,0); fill-rule: nonzero; opacity: 1;" transform=" matrix(1 0 0 1 0 0) " stroke-linecap="round" />
	<path d="M 45 69.051 c -5.701 0 -10.338 -4.638 -10.338 -10.338 c 0 -5.701 4.638 -10.339 10.338 -10.339 c 5.701 0 10.339 4.638 10.339 10.339 C 55.339 64.413 50.701 69.051 45 69.051 z M 45 50.374 c -4.598 0 -8.338 3.741 -8.338 8.339 s 3.741 8.338 8.338 8.338 s 8.339 -3.74 8.339 -8.338 S 49.598 50.374 45 50.374 z" style="stroke: none; stroke-width: 1; stroke-dasharray: none; stroke-linecap: butt; stroke-linejoin: miter; stroke-miterlimit: 10; fill: rgb(0,0,0); fill-rule: nonzero; opacity: 1;" transform=" matrix(1 0 0 1 0 0) " stroke-linecap="round" />
</g>
</svg>